<mxfile host="app.diagrams.net" modified="2023-08-05T14:46:03.526Z" agent="Mozilla/5.0 (Windows NT 10.0; Win64; x64) AppleWebKit/537.36 (KHTML, like Gecko) Chrome/115.0.0.0 Safari/537.36" etag="r6Zz_apbUI-2rVzPfhSe" version="21.6.5" type="google">
  <diagram name="Pagina-1" id="sGIOYSDKwrmyhj1Ky9Ib">
    <mxGraphModel grid="1" page="1" gridSize="10" guides="1" tooltips="1" connect="1" arrows="1" fold="1" pageScale="1" pageWidth="827" pageHeight="1169" math="0" shadow="0">
      <root>
        <mxCell id="0" />
        <mxCell id="1" parent="0" />
        <mxCell id="4ZYgMk7tR0TQDCwBbHYK-7" style="edgeStyle=orthogonalEdgeStyle;rounded=0;orthogonalLoop=1;jettySize=auto;html=1;" edge="1" parent="1" source="4ZYgMk7tR0TQDCwBbHYK-1" target="4ZYgMk7tR0TQDCwBbHYK-4">
          <mxGeometry relative="1" as="geometry" />
        </mxCell>
        <mxCell id="4ZYgMk7tR0TQDCwBbHYK-1" value="START" style="ellipse;whiteSpace=wrap;html=1;" vertex="1" parent="1">
          <mxGeometry x="320" y="20" width="120" height="50" as="geometry" />
        </mxCell>
        <mxCell id="4ZYgMk7tR0TQDCwBbHYK-8" style="edgeStyle=orthogonalEdgeStyle;rounded=0;orthogonalLoop=1;jettySize=auto;html=1;" edge="1" parent="1" source="4ZYgMk7tR0TQDCwBbHYK-4" target="4ZYgMk7tR0TQDCwBbHYK-6">
          <mxGeometry relative="1" as="geometry" />
        </mxCell>
        <mxCell id="4ZYgMk7tR0TQDCwBbHYK-4" value="N1" style="shape=parallelogram;perimeter=parallelogramPerimeter;whiteSpace=wrap;html=1;fixedSize=1;" vertex="1" parent="1">
          <mxGeometry x="320" y="90" width="120" height="40" as="geometry" />
        </mxCell>
        <mxCell id="4ZYgMk7tR0TQDCwBbHYK-11" style="edgeStyle=orthogonalEdgeStyle;rounded=0;orthogonalLoop=1;jettySize=auto;html=1;" edge="1" parent="1" source="4ZYgMk7tR0TQDCwBbHYK-5" target="4ZYgMk7tR0TQDCwBbHYK-10">
          <mxGeometry relative="1" as="geometry" />
        </mxCell>
        <mxCell id="wsgSDdHeIkWTHNHHn30G-3" value="" style="edgeStyle=orthogonalEdgeStyle;rounded=0;orthogonalLoop=1;jettySize=auto;html=1;" edge="1" parent="1" source="4ZYgMk7tR0TQDCwBbHYK-5" target="4ZYgMk7tR0TQDCwBbHYK-6">
          <mxGeometry relative="1" as="geometry" />
        </mxCell>
        <mxCell id="4ZYgMk7tR0TQDCwBbHYK-5" value="N3" style="shape=parallelogram;perimeter=parallelogramPerimeter;whiteSpace=wrap;html=1;fixedSize=1;" vertex="1" parent="1">
          <mxGeometry x="320" y="210" width="120" height="40" as="geometry" />
        </mxCell>
        <mxCell id="4ZYgMk7tR0TQDCwBbHYK-9" style="edgeStyle=orthogonalEdgeStyle;rounded=0;orthogonalLoop=1;jettySize=auto;html=1;" edge="1" parent="1" source="4ZYgMk7tR0TQDCwBbHYK-6" target="4ZYgMk7tR0TQDCwBbHYK-5">
          <mxGeometry relative="1" as="geometry" />
        </mxCell>
        <mxCell id="4ZYgMk7tR0TQDCwBbHYK-6" value="N2" style="shape=parallelogram;perimeter=parallelogramPerimeter;whiteSpace=wrap;html=1;fixedSize=1;" vertex="1" parent="1">
          <mxGeometry x="320" y="160" width="120" height="20" as="geometry" />
        </mxCell>
        <mxCell id="4ZYgMk7tR0TQDCwBbHYK-14" value="V" style="edgeStyle=orthogonalEdgeStyle;rounded=0;orthogonalLoop=1;jettySize=auto;html=1;entryX=0.5;entryY=0;entryDx=0;entryDy=0;" edge="1" parent="1" source="4ZYgMk7tR0TQDCwBbHYK-10" target="wsgSDdHeIkWTHNHHn30G-1">
          <mxGeometry relative="1" as="geometry">
            <mxPoint x="240" y="350" as="targetPoint" />
          </mxGeometry>
        </mxCell>
        <mxCell id="4ZYgMk7tR0TQDCwBbHYK-10" value="N1 &amp;gt;N 2" style="rhombus;whiteSpace=wrap;html=1;" vertex="1" parent="1">
          <mxGeometry x="305" y="280" width="150" height="80" as="geometry" />
        </mxCell>
        <mxCell id="4ZYgMk7tR0TQDCwBbHYK-28" value="F" style="endArrow=classic;html=1;rounded=0;entryX=0.5;entryY=0;entryDx=0;entryDy=0;exitX=1;exitY=0.5;exitDx=0;exitDy=0;" edge="1" parent="1" source="4ZYgMk7tR0TQDCwBbHYK-10">
          <mxGeometry width="50" height="50" relative="1" as="geometry">
            <mxPoint x="380" y="480" as="sourcePoint" />
            <mxPoint x="590" y="345" as="targetPoint" />
            <Array as="points">
              <mxPoint x="590" y="320" />
            </Array>
          </mxGeometry>
        </mxCell>
        <mxCell id="4ZYgMk7tR0TQDCwBbHYK-38" value="" style="endArrow=classic;html=1;rounded=0;" edge="1" parent="1" target="4ZYgMk7tR0TQDCwBbHYK-40">
          <mxGeometry width="50" height="50" relative="1" as="geometry">
            <mxPoint x="180" y="770" as="sourcePoint" />
            <mxPoint x="390" y="630" as="targetPoint" />
            <Array as="points">
              <mxPoint x="180" y="805" />
            </Array>
          </mxGeometry>
        </mxCell>
        <mxCell id="4ZYgMk7tR0TQDCwBbHYK-39" value="" style="endArrow=classic;html=1;rounded=0;exitX=0.375;exitY=1.033;exitDx=0;exitDy=0;exitPerimeter=0;" edge="1" parent="1" source="wsgSDdHeIkWTHNHHn30G-4" target="4ZYgMk7tR0TQDCwBbHYK-40">
          <mxGeometry width="50" height="50" relative="1" as="geometry">
            <mxPoint x="614" y="730" as="sourcePoint" />
            <mxPoint x="420" y="630" as="targetPoint" />
            <Array as="points">
              <mxPoint x="610" y="800" />
            </Array>
          </mxGeometry>
        </mxCell>
        <mxCell id="h0ghJLrZeLgkwiSe3rdB-42" style="edgeStyle=orthogonalEdgeStyle;rounded=0;orthogonalLoop=1;jettySize=auto;html=1;exitX=0.5;exitY=1;exitDx=0;exitDy=0;entryX=0.5;entryY=0;entryDx=0;entryDy=0;" edge="1" parent="1" source="4ZYgMk7tR0TQDCwBbHYK-40" target="h0ghJLrZeLgkwiSe3rdB-40">
          <mxGeometry relative="1" as="geometry" />
        </mxCell>
        <mxCell id="4ZYgMk7tR0TQDCwBbHYK-40" value="" style="ellipse;whiteSpace=wrap;html=1;aspect=fixed;" vertex="1" parent="1">
          <mxGeometry x="370" y="780" width="50" height="50" as="geometry" />
        </mxCell>
        <mxCell id="4ZYgMk7tR0TQDCwBbHYK-44" value="END" style="ellipse;whiteSpace=wrap;html=1;" vertex="1" parent="1">
          <mxGeometry x="335" y="1090" width="120" height="50" as="geometry" />
        </mxCell>
        <mxCell id="wsgSDdHeIkWTHNHHn30G-12" value="" style="edgeStyle=orthogonalEdgeStyle;rounded=0;orthogonalLoop=1;jettySize=auto;html=1;" edge="1" parent="1" source="wsgSDdHeIkWTHNHHn30G-1" target="wsgSDdHeIkWTHNHHn30G-5">
          <mxGeometry relative="1" as="geometry" />
        </mxCell>
        <mxCell id="wsgSDdHeIkWTHNHHn30G-1" value="MAX = N1" style="rounded=0;whiteSpace=wrap;html=1;" vertex="1" parent="1">
          <mxGeometry x="150" y="350" width="120" height="40" as="geometry" />
        </mxCell>
        <mxCell id="wsgSDdHeIkWTHNHHn30G-13" value="" style="edgeStyle=orthogonalEdgeStyle;rounded=0;orthogonalLoop=1;jettySize=auto;html=1;" edge="1" parent="1" source="wsgSDdHeIkWTHNHHn30G-2" target="wsgSDdHeIkWTHNHHn30G-7">
          <mxGeometry relative="1" as="geometry" />
        </mxCell>
        <mxCell id="wsgSDdHeIkWTHNHHn30G-2" value="MAX = N2" style="rounded=0;whiteSpace=wrap;html=1;" vertex="1" parent="1">
          <mxGeometry x="530" y="340" width="120" height="40" as="geometry" />
        </mxCell>
        <mxCell id="wsgSDdHeIkWTHNHHn30G-4" value="MAX =N3" style="rounded=0;whiteSpace=wrap;html=1;" vertex="1" parent="1">
          <mxGeometry x="560" y="660" width="120" height="60" as="geometry" />
        </mxCell>
        <mxCell id="wsgSDdHeIkWTHNHHn30G-19" style="edgeStyle=orthogonalEdgeStyle;rounded=0;orthogonalLoop=1;jettySize=auto;html=1;" edge="1" parent="1" source="wsgSDdHeIkWTHNHHn30G-5">
          <mxGeometry relative="1" as="geometry">
            <mxPoint x="350" y="510" as="targetPoint" />
            <Array as="points">
              <mxPoint x="210" y="510" />
            </Array>
          </mxGeometry>
        </mxCell>
        <mxCell id="wsgSDdHeIkWTHNHHn30G-5" value="MIN = N2" style="rounded=0;whiteSpace=wrap;html=1;" vertex="1" parent="1">
          <mxGeometry x="150" y="420" width="120" height="30" as="geometry" />
        </mxCell>
        <mxCell id="wsgSDdHeIkWTHNHHn30G-18" style="edgeStyle=orthogonalEdgeStyle;rounded=0;orthogonalLoop=1;jettySize=auto;html=1;" edge="1" parent="1" source="wsgSDdHeIkWTHNHHn30G-7" target="wsgSDdHeIkWTHNHHn30G-20">
          <mxGeometry relative="1" as="geometry">
            <mxPoint x="410" y="510" as="targetPoint" />
            <Array as="points">
              <mxPoint x="590" y="510" />
              <mxPoint x="590" y="510" />
            </Array>
          </mxGeometry>
        </mxCell>
        <mxCell id="wsgSDdHeIkWTHNHHn30G-7" value="MIN = N1" style="rounded=0;whiteSpace=wrap;html=1;" vertex="1" parent="1">
          <mxGeometry x="530" y="400" width="120" height="60" as="geometry" />
        </mxCell>
        <mxCell id="wsgSDdHeIkWTHNHHn30G-8" style="edgeStyle=orthogonalEdgeStyle;rounded=0;orthogonalLoop=1;jettySize=auto;html=1;exitX=0.5;exitY=1;exitDx=0;exitDy=0;" edge="1" parent="1" source="wsgSDdHeIkWTHNHHn30G-1" target="wsgSDdHeIkWTHNHHn30G-1">
          <mxGeometry relative="1" as="geometry" />
        </mxCell>
        <mxCell id="wsgSDdHeIkWTHNHHn30G-23" style="edgeStyle=orthogonalEdgeStyle;rounded=0;orthogonalLoop=1;jettySize=auto;html=1;entryX=0.5;entryY=0;entryDx=0;entryDy=0;" edge="1" parent="1" source="wsgSDdHeIkWTHNHHn30G-11" target="wsgSDdHeIkWTHNHHn30G-16">
          <mxGeometry relative="1" as="geometry">
            <mxPoint x="180" y="584.5" as="targetPoint" />
            <Array as="points">
              <mxPoint x="180" y="585" />
            </Array>
          </mxGeometry>
        </mxCell>
        <mxCell id="wsgSDdHeIkWTHNHHn30G-34" value="" style="edgeStyle=orthogonalEdgeStyle;rounded=0;orthogonalLoop=1;jettySize=auto;html=1;entryX=0.358;entryY=-0.067;entryDx=0;entryDy=0;entryPerimeter=0;" edge="1" parent="1" source="wsgSDdHeIkWTHNHHn30G-11" target="wsgSDdHeIkWTHNHHn30G-4">
          <mxGeometry relative="1" as="geometry">
            <mxPoint x="550" y="584.5" as="targetPoint" />
          </mxGeometry>
        </mxCell>
        <mxCell id="wsgSDdHeIkWTHNHHn30G-11" value="N3&amp;gt;MAX" style="rhombus;whiteSpace=wrap;html=1;" vertex="1" parent="1">
          <mxGeometry x="315" y="554.5" width="130" height="60" as="geometry" />
        </mxCell>
        <mxCell id="wsgSDdHeIkWTHNHHn30G-24" style="edgeStyle=orthogonalEdgeStyle;rounded=0;orthogonalLoop=1;jettySize=auto;html=1;" edge="1" parent="1" source="wsgSDdHeIkWTHNHHn30G-30">
          <mxGeometry relative="1" as="geometry">
            <mxPoint x="170" y="740" as="targetPoint" />
            <Array as="points">
              <mxPoint x="100" y="670" />
            </Array>
          </mxGeometry>
        </mxCell>
        <mxCell id="wsgSDdHeIkWTHNHHn30G-26" style="edgeStyle=orthogonalEdgeStyle;rounded=0;orthogonalLoop=1;jettySize=auto;html=1;exitX=1;exitY=0.5;exitDx=0;exitDy=0;" edge="1" parent="1" source="wsgSDdHeIkWTHNHHn30G-16" target="wsgSDdHeIkWTHNHHn30G-27">
          <mxGeometry relative="1" as="geometry">
            <mxPoint x="260" y="690" as="targetPoint" />
            <Array as="points">
              <mxPoint x="260" y="670" />
              <mxPoint x="260" y="670" />
            </Array>
          </mxGeometry>
        </mxCell>
        <mxCell id="wsgSDdHeIkWTHNHHn30G-16" value="&lt;div&gt;N3&lt;/div&gt;&lt;div&gt;&amp;lt;MIN&lt;br&gt;&lt;/div&gt;" style="rhombus;whiteSpace=wrap;html=1;" vertex="1" parent="1">
          <mxGeometry x="140" y="630" width="80" height="80" as="geometry" />
        </mxCell>
        <mxCell id="wsgSDdHeIkWTHNHHn30G-21" value="" style="edgeStyle=orthogonalEdgeStyle;rounded=0;orthogonalLoop=1;jettySize=auto;html=1;" edge="1" parent="1" source="wsgSDdHeIkWTHNHHn30G-20" target="wsgSDdHeIkWTHNHHn30G-11">
          <mxGeometry relative="1" as="geometry" />
        </mxCell>
        <mxCell id="wsgSDdHeIkWTHNHHn30G-20" value="" style="ellipse;whiteSpace=wrap;html=1;aspect=fixed;" vertex="1" parent="1">
          <mxGeometry x="355" y="490" width="50" height="50" as="geometry" />
        </mxCell>
        <mxCell id="wsgSDdHeIkWTHNHHn30G-29" style="edgeStyle=orthogonalEdgeStyle;rounded=0;orthogonalLoop=1;jettySize=auto;html=1;" edge="1" parent="1" source="wsgSDdHeIkWTHNHHn30G-27" target="wsgSDdHeIkWTHNHHn30G-30">
          <mxGeometry relative="1" as="geometry">
            <mxPoint x="190" y="740" as="targetPoint" />
            <Array as="points">
              <mxPoint x="260" y="740" />
            </Array>
          </mxGeometry>
        </mxCell>
        <mxCell id="wsgSDdHeIkWTHNHHn30G-27" value="MIN = 3" style="rounded=0;whiteSpace=wrap;html=1;" vertex="1" parent="1">
          <mxGeometry x="200" y="700" width="120" height="20" as="geometry" />
        </mxCell>
        <mxCell id="wsgSDdHeIkWTHNHHn30G-31" value="" style="edgeStyle=orthogonalEdgeStyle;rounded=0;orthogonalLoop=1;jettySize=auto;html=1;" edge="1" parent="1" source="wsgSDdHeIkWTHNHHn30G-16" target="wsgSDdHeIkWTHNHHn30G-30">
          <mxGeometry relative="1" as="geometry">
            <mxPoint x="170" y="740" as="targetPoint" />
            <mxPoint x="140" y="670" as="sourcePoint" />
            <Array as="points" />
          </mxGeometry>
        </mxCell>
        <mxCell id="wsgSDdHeIkWTHNHHn30G-30" value="" style="ellipse;whiteSpace=wrap;html=1;aspect=fixed;" vertex="1" parent="1">
          <mxGeometry x="160" y="730" width="40" height="40" as="geometry" />
        </mxCell>
        <mxCell id="wsgSDdHeIkWTHNHHn30G-32" style="edgeStyle=orthogonalEdgeStyle;rounded=0;orthogonalLoop=1;jettySize=auto;html=1;exitX=0.5;exitY=1;exitDx=0;exitDy=0;" edge="1" parent="1" source="wsgSDdHeIkWTHNHHn30G-4" target="wsgSDdHeIkWTHNHHn30G-4">
          <mxGeometry relative="1" as="geometry" />
        </mxCell>
        <mxCell id="h0ghJLrZeLgkwiSe3rdB-39" value="" style="edgeStyle=orthogonalEdgeStyle;rounded=0;orthogonalLoop=1;jettySize=auto;html=1;" edge="1" parent="1" source="h0ghJLrZeLgkwiSe3rdB-40" target="h0ghJLrZeLgkwiSe3rdB-41">
          <mxGeometry relative="1" as="geometry" />
        </mxCell>
        <mxCell id="h0ghJLrZeLgkwiSe3rdB-40" value="Stampa max" style="shape=parallelogram;perimeter=parallelogramPerimeter;whiteSpace=wrap;html=1;fixedSize=1;" vertex="1" parent="1">
          <mxGeometry x="335" y="860" width="120" height="60" as="geometry" />
        </mxCell>
        <mxCell id="h0ghJLrZeLgkwiSe3rdB-43" style="edgeStyle=orthogonalEdgeStyle;rounded=0;orthogonalLoop=1;jettySize=auto;html=1;exitX=0.5;exitY=1;exitDx=0;exitDy=0;entryX=0.5;entryY=0;entryDx=0;entryDy=0;" edge="1" parent="1" source="h0ghJLrZeLgkwiSe3rdB-41" target="4ZYgMk7tR0TQDCwBbHYK-44">
          <mxGeometry relative="1" as="geometry" />
        </mxCell>
        <mxCell id="h0ghJLrZeLgkwiSe3rdB-41" value="Stampa min" style="shape=parallelogram;perimeter=parallelogramPerimeter;whiteSpace=wrap;html=1;fixedSize=1;" vertex="1" parent="1">
          <mxGeometry x="335" y="1000" width="120" height="60" as="geometry" />
        </mxCell>
      </root>
    </mxGraphModel>
  </diagram>
</mxfile>
